# xmcd
#
# Track frame offsets: 
#        193
#        23043
#        43706
#        68996
#        86633
#        102299
#        124921
#        143337
#        166283
#        210899
#
# Disc length: 3229 seconds
#
# Revision: 0
# Processed by: cddbd v1.5.2PL0 Copyright (c) Steve Scherf et al.
# Submitted via: ExactAudioCopyFreeDBPlugin 1.0
#
DISCID=7d0c9b0a
DTITLE=Melba Moore - A Portrait Of Melba
DYEAR=1977
DGENRE=Funk
TTITLE0=You Are My River
TTITLE1=Promised Land
TTITLE2=I Don't Know No One Else To Turn To
TTITLE3=Standing Right Here
TTITLE4=Just Another Link
TTITLE5=Living Free
TTITLE6=Is This The End
TTITLE7=Love And I Aren't Strangers Anymore
TTITLE8=Promised Land (12" Extended)
TTITLE9=Standing Right Here (12" Version)
EXTD=
EXTT0=
EXTT1=
EXTT2=
EXTT3=
EXTT4=
EXTT5=
EXTT6=
EXTT7=
EXTT8=
EXTT9=
PLAYORDER=
